<svg xmlns="http://www.w3.org/2000/svg" width="760" height="340" viewBox="0 0 760 340" role="img" aria-label="Preliminary observed success, all retained runs and matched pairs">
<rect width="760" height="340" fill="#f8fafc"/>
<text x="24" y="29" font-family="sans-serif" font-size="18">Preliminary v4 · 21 / 60 runs · formal INCONCLUSIVE</text>
<text x="24" y="67" font-family="sans-serif" font-size="14">All retained outcomes</text>
<text x="24" y="101" font-family="sans-serif" font-size="14">A</text>
<rect x="72" y="81" width="440" height="26" fill="#e2e8f0"/>
<rect x="72" y="81" width="352.0" height="26" fill="#64748b"/>
<text x="535" y="101" font-family="sans-serif" font-size="14">8/10 (80.0%)</text>
<text x="24" y="139" font-family="sans-serif" font-size="14">B</text>
<rect x="72" y="119" width="440" height="26" fill="#e2e8f0"/>
<rect x="72" y="119" width="320.0" height="26" fill="#2563eb"/>
<text x="535" y="139" font-family="sans-serif" font-size="14">8/11 (72.7%)</text>
<text x="24" y="195" font-family="sans-serif" font-size="14">Matched subset only</text>
<text x="24" y="229" font-family="sans-serif" font-size="14">A</text>
<rect x="72" y="209" width="440" height="26" fill="#e2e8f0"/>
<rect x="72" y="209" width="352.0" height="26" fill="#64748b"/>
<text x="535" y="229" font-family="sans-serif" font-size="14">8/10 (80.0%)</text>
<text x="24" y="267" font-family="sans-serif" font-size="14">B</text>
<rect x="72" y="247" width="440" height="26" fill="#e2e8f0"/>
<rect x="72" y="247" width="308.0" height="26" fill="#2563eb"/>
<text x="535" y="267" font-family="sans-serif" font-size="14">7/10 (70.0%)</text>
<text x="24" y="324" font-family="sans-serif" font-size="12">Unpaired observations remain in all-retained results; descriptive snapshot only.</text>
</svg>
